<mxfile host="app.diagrams.net" modified="2021-12-12T11:17:30.167Z" agent="5.0 (Windows NT 10.0; Win64; x64) AppleWebKit/537.36 (KHTML, like Gecko) Chrome/96.0.4664.93 Safari/537.36" etag="0oPKAYvm791bL-ZOKP8U" version="15.9.4" type="github">
  <diagram id="ohbx1vUPn3VqgCL6sF7X" name="Page-1">
    <mxGraphModel dx="1422" dy="762" grid="1" gridSize="10" guides="1" tooltips="1" connect="1" arrows="1" fold="1" page="1" pageScale="1" pageWidth="827" pageHeight="1169" math="0" shadow="0">
      <root>
        <mxCell id="0" />
        <mxCell id="1" parent="0" />
        <mxCell id="z2oNlP7FxSlySX0vPtSW-17" style="edgeStyle=orthogonalEdgeStyle;rounded=0;orthogonalLoop=1;jettySize=auto;html=1;entryX=0.5;entryY=0;entryDx=0;entryDy=0;" parent="1" source="z2oNlP7FxSlySX0vPtSW-1" target="z2oNlP7FxSlySX0vPtSW-3" edge="1">
          <mxGeometry relative="1" as="geometry" />
        </mxCell>
        <mxCell id="z2oNlP7FxSlySX0vPtSW-1" value="int x = 0;&lt;br&gt;int isPrime = 1;" style="rounded=0;whiteSpace=wrap;html=1;" parent="1" vertex="1">
          <mxGeometry x="354" y="100" width="120" height="60" as="geometry" />
        </mxCell>
        <mxCell id="z2oNlP7FxSlySX0vPtSW-16" style="edgeStyle=orthogonalEdgeStyle;rounded=0;orthogonalLoop=1;jettySize=auto;html=1;entryX=0.5;entryY=0;entryDx=0;entryDy=0;" parent="1" source="z2oNlP7FxSlySX0vPtSW-2" target="z2oNlP7FxSlySX0vPtSW-1" edge="1">
          <mxGeometry relative="1" as="geometry" />
        </mxCell>
        <mxCell id="z2oNlP7FxSlySX0vPtSW-2" value="int main(){}" style="ellipse;whiteSpace=wrap;html=1;" parent="1" vertex="1">
          <mxGeometry x="354" width="120" height="80" as="geometry" />
        </mxCell>
        <mxCell id="z2oNlP7FxSlySX0vPtSW-18" style="edgeStyle=orthogonalEdgeStyle;rounded=0;orthogonalLoop=1;jettySize=auto;html=1;entryX=0.5;entryY=0;entryDx=0;entryDy=0;" parent="1" source="z2oNlP7FxSlySX0vPtSW-3" target="z2oNlP7FxSlySX0vPtSW-4" edge="1">
          <mxGeometry relative="1" as="geometry" />
        </mxCell>
        <mxCell id="z2oNlP7FxSlySX0vPtSW-3" value="scanf(&quot;%d&quot;, &amp;amp;x);" style="shape=parallelogram;perimeter=parallelogramPerimeter;whiteSpace=wrap;html=1;fixedSize=1;" parent="1" vertex="1">
          <mxGeometry x="354" y="190" width="120" height="60" as="geometry" />
        </mxCell>
        <mxCell id="z2oNlP7FxSlySX0vPtSW-19" value="false" style="edgeStyle=orthogonalEdgeStyle;rounded=0;orthogonalLoop=1;jettySize=auto;html=1;entryX=1;entryY=0.5;entryDx=0;entryDy=0;" parent="1" source="z2oNlP7FxSlySX0vPtSW-4" target="z2oNlP7FxSlySX0vPtSW-14" edge="1">
          <mxGeometry relative="1" as="geometry">
            <Array as="points">
              <mxPoint x="660" y="320" />
              <mxPoint x="660" y="870" />
            </Array>
          </mxGeometry>
        </mxCell>
        <mxCell id="z2oNlP7FxSlySX0vPtSW-20" value="true" style="edgeStyle=orthogonalEdgeStyle;rounded=0;orthogonalLoop=1;jettySize=auto;html=1;entryX=0.5;entryY=0;entryDx=0;entryDy=0;" parent="1" source="z2oNlP7FxSlySX0vPtSW-4" target="z2oNlP7FxSlySX0vPtSW-5" edge="1">
          <mxGeometry relative="1" as="geometry" />
        </mxCell>
        <mxCell id="z2oNlP7FxSlySX0vPtSW-4" value="x &amp;gt; 1" style="rhombus;whiteSpace=wrap;html=1;" parent="1" vertex="1">
          <mxGeometry x="374" y="280" width="80" height="80" as="geometry" />
        </mxCell>
        <mxCell id="z2oNlP7FxSlySX0vPtSW-10" style="edgeStyle=orthogonalEdgeStyle;rounded=0;orthogonalLoop=1;jettySize=auto;html=1;entryX=0.5;entryY=0;entryDx=0;entryDy=0;" parent="1" source="z2oNlP7FxSlySX0vPtSW-5" target="z2oNlP7FxSlySX0vPtSW-6" edge="1">
          <mxGeometry relative="1" as="geometry" />
        </mxCell>
        <mxCell id="z2oNlP7FxSlySX0vPtSW-23" style="edgeStyle=orthogonalEdgeStyle;rounded=0;orthogonalLoop=1;jettySize=auto;html=1;" parent="1" source="z2oNlP7FxSlySX0vPtSW-5" edge="1">
          <mxGeometry relative="1" as="geometry">
            <mxPoint x="414" y="710" as="targetPoint" />
            <Array as="points">
              <mxPoint x="340" y="440" />
              <mxPoint x="340" y="710" />
            </Array>
          </mxGeometry>
        </mxCell>
        <mxCell id="z2oNlP7FxSlySX0vPtSW-5" value="int i = 2, i &amp;lt; x; i++" style="shape=hexagon;perimeter=hexagonPerimeter2;whiteSpace=wrap;html=1;fixedSize=1;" parent="1" vertex="1">
          <mxGeometry x="354" y="400" width="120" height="80" as="geometry" />
        </mxCell>
        <mxCell id="z2oNlP7FxSlySX0vPtSW-12" value="false" style="edgeStyle=orthogonalEdgeStyle;rounded=0;orthogonalLoop=1;jettySize=auto;html=1;entryX=1;entryY=0.5;entryDx=0;entryDy=0;" parent="1" source="z2oNlP7FxSlySX0vPtSW-6" target="z2oNlP7FxSlySX0vPtSW-5" edge="1">
          <mxGeometry x="0.2705" relative="1" as="geometry">
            <Array as="points">
              <mxPoint x="494" y="545" />
              <mxPoint x="494" y="440" />
            </Array>
            <mxPoint as="offset" />
          </mxGeometry>
        </mxCell>
        <mxCell id="z2oNlP7FxSlySX0vPtSW-21" value="true" style="edgeStyle=orthogonalEdgeStyle;rounded=0;orthogonalLoop=1;jettySize=auto;html=1;entryX=0.5;entryY=0;entryDx=0;entryDy=0;" parent="1" source="z2oNlP7FxSlySX0vPtSW-6" target="z2oNlP7FxSlySX0vPtSW-7" edge="1">
          <mxGeometry relative="1" as="geometry" />
        </mxCell>
        <mxCell id="z2oNlP7FxSlySX0vPtSW-6" value="x % i == 0" style="rhombus;whiteSpace=wrap;html=1;" parent="1" vertex="1">
          <mxGeometry x="374" y="504.5" width="80" height="80" as="geometry" />
        </mxCell>
        <mxCell id="z2oNlP7FxSlySX0vPtSW-22" style="edgeStyle=orthogonalEdgeStyle;rounded=0;orthogonalLoop=1;jettySize=auto;html=1;entryX=0.5;entryY=0;entryDx=0;entryDy=0;" parent="1" source="z2oNlP7FxSlySX0vPtSW-7" target="z2oNlP7FxSlySX0vPtSW-8" edge="1">
          <mxGeometry relative="1" as="geometry" />
        </mxCell>
        <mxCell id="z2oNlP7FxSlySX0vPtSW-7" value="isPrime = 0" style="rounded=0;whiteSpace=wrap;html=1;" parent="1" vertex="1">
          <mxGeometry x="354" y="630" width="120" height="60" as="geometry" />
        </mxCell>
        <mxCell id="z2oNlP7FxSlySX0vPtSW-24" value="true" style="edgeStyle=orthogonalEdgeStyle;rounded=0;orthogonalLoop=1;jettySize=auto;html=1;entryX=0.5;entryY=0;entryDx=0;entryDy=0;" parent="1" source="z2oNlP7FxSlySX0vPtSW-8" target="z2oNlP7FxSlySX0vPtSW-13" edge="1">
          <mxGeometry relative="1" as="geometry" />
        </mxCell>
        <mxCell id="z2oNlP7FxSlySX0vPtSW-25" style="edgeStyle=orthogonalEdgeStyle;rounded=0;orthogonalLoop=1;jettySize=auto;html=1;entryX=0.567;entryY=-0.05;entryDx=0;entryDy=0;entryPerimeter=0;" parent="1" source="z2oNlP7FxSlySX0vPtSW-8" target="z2oNlP7FxSlySX0vPtSW-14" edge="1">
          <mxGeometry relative="1" as="geometry" />
        </mxCell>
        <mxCell id="z2oNlP7FxSlySX0vPtSW-26" value="false" style="edgeLabel;html=1;align=center;verticalAlign=middle;resizable=0;points=[];" parent="z2oNlP7FxSlySX0vPtSW-25" vertex="1" connectable="0">
          <mxGeometry x="-0.2042" y="1" relative="1" as="geometry">
            <mxPoint as="offset" />
          </mxGeometry>
        </mxCell>
        <mxCell id="z2oNlP7FxSlySX0vPtSW-8" value="isPrime" style="rhombus;whiteSpace=wrap;html=1;" parent="1" vertex="1">
          <mxGeometry x="374" y="730" width="80" height="80" as="geometry" />
        </mxCell>
        <mxCell id="z2oNlP7FxSlySX0vPtSW-27" style="edgeStyle=orthogonalEdgeStyle;rounded=0;orthogonalLoop=1;jettySize=auto;html=1;entryX=0.5;entryY=0;entryDx=0;entryDy=0;" parent="1" source="z2oNlP7FxSlySX0vPtSW-13" target="z2oNlP7FxSlySX0vPtSW-15" edge="1">
          <mxGeometry relative="1" as="geometry" />
        </mxCell>
        <mxCell id="z2oNlP7FxSlySX0vPtSW-13" value="printf(&quot;%s&quot;, &quot;Простое&quot;);" style="shape=parallelogram;perimeter=parallelogramPerimeter;whiteSpace=wrap;html=1;fixedSize=1;" parent="1" vertex="1">
          <mxGeometry x="354" y="840" width="120" height="60" as="geometry" />
        </mxCell>
        <mxCell id="z2oNlP7FxSlySX0vPtSW-29" style="edgeStyle=orthogonalEdgeStyle;rounded=0;orthogonalLoop=1;jettySize=auto;html=1;entryX=1;entryY=0.5;entryDx=0;entryDy=0;" parent="1" source="z2oNlP7FxSlySX0vPtSW-14" target="z2oNlP7FxSlySX0vPtSW-15" edge="1">
          <mxGeometry relative="1" as="geometry" />
        </mxCell>
        <mxCell id="z2oNlP7FxSlySX0vPtSW-14" value="&lt;span&gt;printf(&quot;%s&quot;, &quot;Не простое&quot;);&lt;/span&gt;" style="shape=parallelogram;perimeter=parallelogramPerimeter;whiteSpace=wrap;html=1;fixedSize=1;" parent="1" vertex="1">
          <mxGeometry x="510" y="840" width="120" height="60" as="geometry" />
        </mxCell>
        <mxCell id="z2oNlP7FxSlySX0vPtSW-15" value="return 0;" style="ellipse;whiteSpace=wrap;html=1;" parent="1" vertex="1">
          <mxGeometry x="354" y="960" width="120" height="80" as="geometry" />
        </mxCell>
      </root>
    </mxGraphModel>
  </diagram>
</mxfile>
